:SAMPLES-PER-SECOND 30
:FULLY-SPECIFIED
:DEGREES
1
root  34.89078612 36.51459761 -14.82356214 8.417580605 -5.281941414 3.501870155
lowerback  -8.109930992 -0.6847720742 -0.2719627023
upperback  -3.864690065 -0.4644489884 -3.088690042
thorax  0.5273740292 -0.08876650035 -3.073280096
lowerneck  -11.2468996 -9.851129532 -8.478839874
upperneck  20.05900002 -13.38210011 8.954429626
head  9.359869957 -5.78331995 2.856930017
lclavicle  0 -4.497500157e-015 -2.743230041e-014
lhumerus  -48.70729828 28.93939972 64.19360352
lradius  0.001595117152 -6.507048965e-006 30.00370026
lwrist  4.824992743e-007 -3.790274832e-007 -28.36750221
lhand  -4.413167194e-031 -36.85710144 -10.38479996
lfingers  90 7.125020027 -90
lthumb  94.73460718 -25.22747468 100.9968456
rclavicle  0 -4.497500157e-015 -2.743230041e-014
rhumerus  -57.64920044 -38.54619598 -50.95820236
rradius  -5.16745672e-007 2.214343908e-008 37.41759872
rwrist  -0.0001011603963 -0.001600692281 -147.8619995
rhand  -3.535513218e-031 -2.854949951 -7.66711998
rfingers  -90 -7.125020027 -90
rthumb  -86.61206786 -7.981945253 -66.91035963
rfemur  -12.1781168 16.33605194 12.86455727
rtibia  -1.06072402 -0.8475506306 20.67669296
rfoot  0.4185374975 -21.56378746 -35.9022789
rtoes  4.138733712 19.58426543 -102.1819001
lfemur  -8.103693008 -16.77120781 -20.26996422
ltibia  2.211536884 -0.9966680408 14.97655296
lfoot  0.708928287 -23.64647675 37.47340775
ltoes  -8.724062091 -18.06748907 -116.3255407
2
root  34.89185844 36.51402992 -14.82406076 8.417580605 -5.329614162 3.501870155
lowerback  -8.069660187 -0.6790130138 -0.2849804461
upperback  -3.864690065 -0.4568139911 -3.098449945
thorax  0.503148973 -0.08510410041 -3.075020075
lowerneck  -11.06569958 -10.01720047 -8.655739784
upperneck  19.89679909 -13.6104002 9.063679695
head  9.31427002 -5.904580116 2.895989895
lclavicle  0 -4.497500157e-015 -2.743230041e-014
lhumerus  -48.70029831 28.9951992 64.14289856
lradius  0.001595117152 -6.507048965e-006 29.99280167
lwrist  4.824992743e-007 -3.790274832e-007 -28.3878994
lhand  -4.413426916e-031 -36.86159897 -10.43980026
lfingers  90 7.125020027 -90
lthumb  94.74829025 -25.28130286 101.0065857
rclavicle  0 -4.497500157e-015 -2.743230041e-014
rhumerus  -57.56549835 -38.32749939 -51.0848999
rradius  -5.16745672e-007 2.214343908e-008 37.70629883
rwrist  -0.0001011603963 -0.001600692281 -148.1829987
rhand  -1.767945559e-031 -2.975209951 -7.610770226
rfingers  -90 -7.125020027 -90
rthumb  -86.61159503 -8.027599693 -67.02436996
rfemur  -12.20185471 16.32142639 12.85424232
rtibia  -1.06072402 -0.8470637202 20.69431305
rfoot  0.4190913737 -21.5829277 -35.85406876
rtoes  4.186268932 19.57453898 -102.3237484
lfemur  -8.105175018 -16.71845818 -20.27550507
ltibia  2.207671642 -0.986100018 14.96909237
lfoot  0.708928287 -23.66938019 37.45864105
ltoes  -8.726770532 -18.0662148 -116.3342741
3
root  34.89164518 36.51356735 -14.82462845 8.413456917 -5.365508556 3.501870155
lowerback  -8.053500175 -0.6698870063 -0.2905141711
upperback  -3.864690065 -0.4442499876 -3.112270117
thorax  0.4965929985 -0.07883439958 -3.085050106
lowerneck  -10.86310005 -10.18099976 -8.778249741
upperneck  19.69820023 -13.83349991 9.113229752
head  9.243459702 -6.028470039 2.908140182
lclavicle  0 -4.497500157e-015 -2.743230041e-014
lhumerus  -48.61220169 28.85890007 64.1917038
lradius  0.001595117152 -6.507048965e-006 30.02890205
lwrist  4.824992743e-007 -3.790274832e-007 -28.19169998
lhand  -4.412260932e-031 -36.84140015 -10.50790024
lfingers  90 7.125020027 -90
lthumb  94.7532762 -25.34888405 100.9911416
rclavicle  0 -4.497500157e-015 -2.743230041e-014
rhumerus  -57.5182991 -38.07329559 -51.21530533
rradius  -5.16745672e-007 2.214343908e-008 38.05619812
rwrist  -0.0001011603963 -0.001600692281 -148.8249969
rhand  -1.767802125e-031 -2.884380102 -7.58355999
rfingers  -90 -7.125020027 -90
rthumb  -86.58434033 -8.057315508 -66.93446639
rfemur  -12.21579742 16.374403 12.85536385
rtibia  -1.06072402 -0.8338262439 20.72110558
rfoot  0.4067859054 -21.57043648 -35.87231445
rtoes  4.133481781 19.5853329 -102.1662321
lfemur  -8.069605827 -16.74947929 -20.29073715
ltibia  2.230016708 -1.005822062 14.92764568
lfoot  0.708928287 -23.59930611 37.52246094
ltoes  -8.730316873 -18.06454556 -116.3457101
4
root  34.89054282 36.51360639 -14.82533432 8.402785301 -5.395931244 3.501281023
lowerback  -8.05274868 -0.6613128781 -0.27398929
upperback  -3.865259886 -0.4332869947 -3.127629995
thorax  0.4958139956 -0.07344560325 -3.109420061
lowerneck  -10.63850021 -10.35400009 -8.827710152
upperneck  19.48999977 -14.06410027 9.065600395
head  9.153129578 -6.162209988 2.87651968
lclavicle  0 -4.497500157e-015 -2.743230041e-014
lhumerus  -48.56930161 28.83950043 64.19249725
lradius  0.001595117152 -6.507048965e-006 30.06699944
lwrist  4.824992743e-007 -3.790274832e-007 -28.00860023
lhand  -4.412474444e-031 -36.8451004 -10.40429974
lfingers  90 7.125020027 -90
lthumb  94.73315096 -25.24698361 100.9857853
rclavicle  0 -4.497500157e-015 -2.743230041e-014
rhumerus  -57.39489746 -37.72679901 -51.50840378
rradius  -5.16745672e-007 2.214343908e-008 38.45149994
rwrist  -0.0001011603963 -0.001600692281 -149.3280029
rhand  -1.767773088e-031 -2.865639925 -7.639100075
rfingers  -90 -7.125020027 -90
rthumb  -86.60290143 -8.007207182 -66.91926836
rfemur  -12.21704388 16.41645813 12.84704399
rtibia  -1.06072402 -0.8433396816 20.72763252
rfoot  0.406989187 -21.59688187 -35.86394119
rtoes  4.116659007 19.5887426 -102.1160506
lfemur  -8.047803879 -16.72049332 -20.30518341
ltibia  2.231188774 -1.011344433 14.91844463
lfoot  0.7090716958 -23.59036827 37.53207016
ltoes  -8.709355485 -18.07439955 -116.2781298
5
root  34.88918214 36.51412603 -14.82626697 8.378723145 -5.429929256 3.491849661
lowerback  -8.040280342 -0.6581460834 -0.2759084105
upperback  -3.879679918 -0.4273590147 -3.144109964
thorax  0.4741950035 -0.07285227627 -3.124819994
lowerneck  -10.44839954 -10.54599953 -8.973469734
upperneck  19.36560059 -14.32509995 9.118559837
head  9.117239952 -6.301000118 2.887880087
lclavicle  0 -4.497500157e-015 -2.743230041e-014
lhumerus  -48.62760162 29.0632 64.10959625
lradius  0.001595117152 -6.507048965e-006 30.11129951
lwrist  4.824992743e-007 -3.790274832e-007 -28.0571003
lhand  -4.416052048e-031 -36.9070015 -10.66629982
lfingers  90 7.125020027 -90
lthumb  94.81749295 -25.50201483 101.0757362
rclavicle  0 -4.497500157e-015 -2.743230041e-014
rhumerus  -57.24919891 -37.3553009 -51.77780533
rradius  -5.16745672e-007 2.214343908e-008 38.97050095
rwrist  -0.0001011603963 -0.001600692281 -149.3999939
rhand  -1.767598079e-031 -2.749979973 -7.59059
rfingers  -90 -7.125020027 -90
rthumb  -86.56258015 -8.057789603 -66.80391846
rfemur  -12.18676758 16.41534424 12.85498619
rtibia  -1.06072402 -0.8733788133 20.70559692
rfoot  0.4237589836 -21.67254257 -35.81365585
rtoes  4.117511011 19.58857026 -102.1185919
lfemur  -8.005433083 -16.63580704 -20.30305481
ltibia  2.239388227 -0.9796745181 14.89859962
lfoot  0.720553875 -23.65420532 37.53042603
ltoes  -8.695965129 -18.08067879 -116.2349774
